<svg t="1726555078571" class="icon" viewBox="0 0 1024 1024" version="1.1" xmlns="http://www.w3.org/2000/svg" p-id="4298" width="16" height="16"><path d="M512 64c247.424 0 448 200.576 448 448s-200.576 448-448 448S64 759.424 64 512 264.576 64 512 64z m30.72 65.216a32 32 0 0 1 1.28 8.981333v96a32 32 0 0 1-64 0v-96c0-3.114667 0.426667-6.122667 1.28-8.96l-4.224 0.341334c-186.965333 16.853333-335.274667 167.744-348.16 355.84l1.130667-0.170667 3.072-0.149333h96a32 32 0 1 1 0 64h-96c-1.130667 0-2.24-0.064-3.328-0.170667 17.6 184.746667 166.165333 331.328 351.808 345.877333a31.722667 31.722667 0 0 1-1.578667-9.941333V789.12a32 32 0 0 1 64 0v95.786667c0 3.456-0.554667 6.805333-1.578667 9.92 189.226667-14.826667 339.925333-166.826667 352.704-356.629334l-1.706666 0.213334-3.093334 0.170666h-95.786666a32 32 0 0 1 0-64h95.786666c1.322667 0 2.624 0.064 3.904 0.213334-17.6-183.104-163.84-328.661333-347.285333-345.194667z" fill="#8a8a8a" p-id="4299"></path></svg>